<?xml version="1.0" encoding="UTF-8"?> <svg xmlns="http://www.w3.org/2000/svg" width="240.027" height="80.912" viewBox="0 0 240.027 80.912"><g id="Group_331" data-name="Group 331" transform="translate(-13.98 -22.122)"><path id="Path_86" data-name="Path 86" d="M13.98,35.449l.375,3.485L17,38.816l2.011,18.709-2.65.119.375,3.486,10.049-.452-.374-3.486-2.926.132-.879-8.181,7.467-.335-.435-4.055-7.468.336-.7-6.473,8.329-.374.355,3.308,3.958-.177-.731-6.794ZM43.1,37.337l2.375-.106c2.34-.105,5.471-.246,5.812,2.92.371,3.45-2.061,3.988-4.539,4.1l-2.89.129Zm3.17-3.645-10.668.479.375,3.486,2.65-.119,2.012,18.709-2.65.119.375,3.486,9.877-.444-.375-3.486-2.753.124-.88-8.181,2.684-.12c1.824-.082,4.363.054,4.623,2.472l.967,9,6.883-.31-.375-3.486-2.409.108-.623-5.8a3.9,3.9,0,0,0-3.5-3.952l-.007-.071A5.338,5.338,0,0,0,55.738,39.7a5.943,5.943,0,0,0-1.476-3.437,7.886,7.886,0,0,0-6.3-2.637c-.66,0-1.239.045-1.684.066m12.757-.905.374,3.486,2.65-.119,2.012,18.709-2.65.119.374,3.486,19.135-.86L80.1,49.926l-3.958.178.451,4.2-8.053.362-.879-8.18,6.917-.311-.435-4.055-6.917.311-.7-6.473,8.053-.362.356,3.308,3.958-.178-.73-6.794ZM80.783,31.5l.374,3.485,2.65-.119,2.011,18.709-2.65.119.374,3.486,19.134-.86-.826-7.683-3.958.178.451,4.2-8.053.362L89.413,45.2l6.918-.311-.436-4.055-6.917.311-.7-6.473,8.053-.362.355,3.308,3.958-.178-.73-6.794Zm38.052-2.7c-5.816.261-7.239,5.043-6.983,7.426.715,6.651,6.435,7.109,7.5,7.383,4.267,1.095,6.879.942,7.254,4.427a3.514,3.514,0,0,1-3.345,3.939c-3.373.152-5.835-2.168-6.611-5.528l-3.476.156.944,8.785,3.614-.162-.172-1.6a9.716,9.716,0,0,0,6.428,1.891c4.542-.2,7.54-3.519,7.024-8.321-.6-5.549-4.038-6.681-7.521-7.561s-6.906-1.191-7.17-3.645a3.043,3.043,0,0,1,3.1-3.642,4.94,4.94,0,0,1,3.518,1.2,7.061,7.061,0,0,1,2.046,3.268l3.442-.155L127.6,28.98l-3.613.162.172,1.6a7.921,7.921,0,0,0-5.032-1.948q-.147,0-.295.006m20.108,2.8,1.032-.046c.722-.032,6.3-.927,6.872,4.409.53,4.933-4.624,4.919-5.618,4.906-.074,0-.125,0-.149,0l-1.135.051Zm2.633-3.532q-.382,0-.763.017l-9.429.423L131.757,32l2.719-.123,2.011,18.71-2.719.122.375,3.486,10.359-.466-.374-3.485-3.167.142-.642-5.976,3.131-.141c4.1-.184,8.535-2.313,7.87-8.5-.623-5.795-5.171-7.694-9.743-7.694h0m10.754-.8.375,3.486,2.65-.119,2.011,18.709-2.65.119.375,3.485,19.134-.86-.826-7.683-3.957.178.451,4.2-8.053.362-.879-8.18,6.918-.311-.436-4.055-6.917.311-.7-6.473,8.053-.361.355,3.307,3.958-.177-.731-6.794ZM174.08,25.99l.375,3.486,2.65-.119,2.011,18.71-2.65.119.375,3.485,19.134-.86-.826-7.683-3.958.178.451,4.2-8.053.362-.879-8.181,6.918-.311-.436-4.055-6.917.311-.7-6.473,8.053-.362.356,3.308,3.958-.178-.73-6.794Zm34.164-2.408c-5.953.268-12.141,4.8-11.169,13.833C197.9,45.1,204,50.722,211.162,50.4c5.4-.243,9.422-3.39,10.205-9.609l-4.129.186c-1.071,2.907-2.818,4.988-6.536,5.155-5.265.237-8.611-3.866-9.138-8.775-.532-4.944,1.976-9.275,7.173-9.508a7.469,7.469,0,0,1,4.16,1.064,6.164,6.164,0,0,1,2.806,3.269l3.614-.162-.895-8.323-3.614.162.176,1.636c-2-1.7-5.274-1.919-6.452-1.919-.119,0-.217,0-.29.006M235.3,22.561l.375,3.486,2.65-.119.7,6.473-8.879.4-.7-6.473,2.65-.119-.375-3.486-9.773.439.375,3.486,2.65-.119,2.011,18.71-2.65.119.375,3.485,9.773-.439-.375-3.486-2.65.119-.879-8.181,8.879-.4.879,8.181-2.65.119.375,3.486,9.773-.44-.374-3.485-2.65.119L242.8,25.727l2.65-.119-.375-3.486Z" transform="translate(0)" fill="#fff"></path><path id="Path_87" data-name="Path 87" d="M90.2,112.789l4.451-.3c3.4-.229,4.883,1.114,5.1,3.885.176,2.277-1.35,4.021-4.47,4.231l-4.451.3Zm5.766-7.75-19.639,1.323.566,7.325,3.4-.229,1.629,21.081-3.4.229.566,7.324,17.207-1.16-.566-7.324-3.9.262-.436-5.641,6.333-.427c9.223-.621,12.787-4.643,12.2-12.263-.544-7.047-4.129-10.571-11.957-10.571q-.957,0-2,.071m15.974-.783.566,7.324,3.166-.213,1.629,21.082-3.166.213.566,7.324,31.248-2.106-1.094-14.153-6.7.451-.94,6.928-10,.674-.505-6.532,6.378-.43-.619-8.017-6.378.43-.505-6.532,10-.675,1.954,6.186,6.7-.451-1.051-13.609Zm46.88,15.1c-.34-4.4,2.2-8.555,6.6-8.852,4.451-.3,7.6,3.468,7.942,7.872s-2.2,8.555-6.65,8.855c-.164.011-.325.016-.486.016-4.149,0-7.083-3.65-7.411-7.89m6.951-19.184c-.378,0-.76.013-1.142.039-9.682.652-16.794,9.489-16,19.832s9.2,18.134,18.878,17.481c9.728-.655,16.84-9.492,16.041-19.835-.768-9.935-8.546-17.516-17.781-17.517h0m33.241,6.194,4.451-.3c3.4-.229,4.882,1.113,5.1,3.885.176,2.276-1.35,4.02-4.47,4.231l-4.451.3Zm7.765-7.821q-.957,0-2,.07l-19.639,1.324.566,7.324,3.4-.229,1.629,21.081-3.4.229.566,7.324,17.208-1.16-.566-7.324-3.9.263-.436-5.642,6.333-.427c9.223-.621,12.787-4.642,12.2-12.263-.544-7.046-4.128-10.571-11.956-10.571h0m13.787-.7.566,7.324,3.4-.228,1.629,21.081-3.4.229.566,7.324,29.826-2.011-1.1-14.252-6.379.43-.933,7.027-8.672.584-1.629-21.081,3.4-.229-.566-7.324Zm32.994-1.953.566,7.324,3.166-.214,1.629,21.082-3.166.213.566,7.324,31.248-2.107-1.094-14.153-6.7.451-.941,6.929-10,.674-.505-6.532,6.379-.43-.619-8.017-6.379.43-.5-6.532,10-.674,1.954,6.186,6.7-.452L284.81,93.782Z" transform="translate(-37.058 -42.591)" fill="#fff"></path><path id="Path_88" data-name="Path 88" d="M31.658,155.807v10.466l1.874-.152v-1.429l10.056-.814v1.429l1.874-.151v-5.419l-1.874.152v1.577l-4.4.356V157.8l-2.18.176V162l-3.479.281V157.79l1.778-.144v-2.135Zm1.365-7.537a5.151,5.151,0,0,1,4.837-4.956,4.34,4.34,0,0,1,4.99,4.366,5,5,0,0,1-4.627,4.865q-.285.023-.562.024H37.65c-2.644,0-4.627-1.543-4.627-4.3m5.545-7.4c-.2,0-.406.008-.612.025a7.773,7.773,0,0,0-7.227,7.637,6.392,6.392,0,0,0,7.227,6.449,7.551,7.551,0,0,0,7.189-7.615,6.426,6.426,0,0,0-6.576-6.5h0m-6.529-5.163c0-1.262,0-2.95,1.7-3.088,1.855-.15,2.084,1.167,2.084,2.5v1.559l-3.786.306Zm10.057-7.03v1.3l-3.117.252a2.134,2.134,0,0,0-2.2,1.83l-.039,0a2.8,2.8,0,0,0-3.135-1.843,3.223,3.223,0,0,0-1.874.746,4.9,4.9,0,0,0-1.567,4.265v5.753l1.873-.152V139.4l10.057-.813v1.429l1.873-.151v-5.326l-1.873.152v1.484l-4.4.356v-1.448c0-.983.133-2.348,1.434-2.454l4.837-.391v-3.712Z" transform="translate(-9.617 -63.239)" fill="#fff"></path><path id="Path_89" data-name="Path 89" d="M524.655,196.152a3.945,3.945,0,0,0-3.743,4.267,4.118,4.118,0,0,0,4.424,3.716,3.945,3.945,0,0,0,3.743-4.267,4.109,4.109,0,0,0-4.134-3.726c-.1,0-.193,0-.29.01m7.992,3.515a2.864,2.864,0,0,1,5.724-.206,2.82,2.82,0,0,1-2.948,2.825,2.682,2.682,0,0,1-2.776-2.62m-1.491-.152a4.046,4.046,0,0,0,4.348,4.071,4.09,4.09,0,1,0,0-8.163,4.162,4.162,0,0,0-4.348,4.092m10.756-3.359h.792c.78,0,1.823,0,1.823.963,0,1.05-.826,1.18-1.651,1.18h-.964Zm1.182-1.061h-3.556v1.061h.884v5.694h-.884v1.061h3.292V201.85h-.918v-2.49h.895c.608,0,1.445.076,1.445.812v2.739h2.295V201.85h-.8v-1.765a1.113,1.113,0,0,0-1.021-1.245v-.022a1.748,1.748,0,0,0,1.3-1.775,1.6,1.6,0,0,0-.367-1.061,2.721,2.721,0,0,0-2.261-.889l-.3,0m3.341,3.474a3.993,3.993,0,0,0,4.256,4.114,3.673,3.673,0,0,0,2.512-1v.823h1.2v-2.565h.883V198.8h-4.015v1.148H553.2a2.418,2.418,0,0,1-2.409,1.44,2.674,2.674,0,0,1-2.868-2.825,2.729,2.729,0,0,1,2.822-2.739,2.857,2.857,0,0,1,1.48.4,1.666,1.666,0,0,1,.837,1.18h1.159v-2.706h-1.2v.531a3.736,3.736,0,0,0-2.283-.7,4.234,4.234,0,0,0-4.3,4.048" transform="translate(-301.283 -102.464)" fill="#fff"></path></g></svg> 